<?xml version="1.0" encoding="UTF-8"?>
<!DOCTYPE svg PUBLIC "-//W3C//DTD SVG 1.1//EN" "http://www.w3.org/Graphics/SVG/1.1/DTD/svg11.dtd">
<svg xmlns="http://www.w3.org/2000/svg" version="1.1" width="346px" height="346px" style="shape-rendering:geometricPrecision; text-rendering:geometricPrecision; image-rendering:optimizeQuality; fill-rule:evenodd; clip-rule:evenodd" xmlns:xlink="http://www.w3.org/1999/xlink">
<g><path style="opacity:0.1" fill="#f8f5fb" d="M 166.5,6.5 C 186.878,6.05418 206.878,8.55418 226.5,14C 235.975,18.4421 245.642,22.6088 255.5,26.5C 261.025,31.0946 267.025,34.9279 273.5,38C 278.061,41.7457 282.727,46.0791 287.5,51C 288.833,51.6667 290.167,52.3333 291.5,53C 301.834,64.1699 311.334,76.0032 320,88.5C 322.902,96.8028 326.735,104.636 331.5,112C 344.998,152.281 345.498,192.781 333,233.5C 327.51,247.474 320.176,260.474 311,272.5C 309.139,274.888 307.806,277.554 307,280.5C 298.271,289.971 289.104,298.971 279.5,307.5C 273.176,310.331 267.509,314.165 262.5,319C 252.888,323.139 243.554,327.806 234.5,333C 226.702,334.933 219.035,337.266 211.5,340C 203.292,340.599 195.292,341.932 187.5,344C 178.5,344.667 169.5,344.667 160.5,344C 152.525,341.923 144.358,340.423 136,339.5C 134.674,339.245 133.674,338.578 133,337.5C 132.439,338.022 131.772,338.355 131,338.5C 126.45,336.252 121.617,334.752 116.5,334C 107.475,329.662 98.4751,325.328 89.5,321C 82.0069,315.998 74.6736,310.832 67.5,305.5C 63.4634,300.298 58.63,295.964 53,292.5C 49.0394,286.241 44.3727,280.575 39,275.5C 35.3893,268.738 31.2226,262.404 26.5,256.5C 21.5645,244.191 16.7311,231.858 12,219.5C 6.05051,188.849 6.05051,158.182 12,127.5C 16.8583,115.928 21.525,104.262 26,92.5C 31.0806,85.3413 35.914,78.008 40.5,70.5C 47.4931,61.8406 55.1597,53.8406 63.5,46.5C 72.6412,39.0941 82.3079,32.4274 92.5,26.5C 103.544,22.0967 114.544,17.5967 125.5,13C 139.146,9.75745 152.813,7.59078 166.5,6.5 Z"/></g>
<g><path style="opacity:0.97" fill="#7b41ab" d="M 160.5,8.5 C 228.242,6.21165 280.409,33.2116 317,89.5C 348.193,146.224 348.193,202.891 317,259.5C 278.086,319.035 222.919,345.535 151.5,339C 93.1179,328.744 50.6179,297.244 24,244.5C -3.45711,179.111 5.20955,119.111 50,64.5C 79.9042,32.1313 116.738,13.4647 160.5,8.5 Z"/></g>
<g><path style="opacity:0.998" fill="#fefefe" d="M 155.5,11.5 C 226.341,6.8332 280.174,34.4999 317,94.5C 341.337,141.27 344.004,189.27 325,238.5C 300.972,290.191 261.138,322.358 205.5,335C 130.888,345.606 73.3877,319.439 33,256.5C 8.39273,210.83 4.72607,163.497 22,114.5C 47.8515,55.9914 92.3515,21.6581 155.5,11.5 Z"/></g>
<g><path style="opacity:0.996" fill="#7234a6" d="M 52.5,88.5 C 57.0133,90.0213 60.8467,92.688 64,96.5C 65.2635,94.393 67.0968,93.393 69.5,93.5C 69.3119,98.8631 66.6452,101.03 61.5,100C 57.4975,96.8449 54.4975,93.0115 52.5,88.5 Z"/></g>
<g><path style="opacity:0.996" fill="#f9cb64" d="M 279.5,78.5 C 289.372,79.8434 291.706,84.6767 286.5,93C 276.933,96.6489 272.766,93.4823 274,83.5C 275.352,81.251 277.185,79.5844 279.5,78.5 Z"/></g>
<g><path style="opacity:0.996" fill="#fffaf1" d="M 279.5,82.5 C 284.207,82.4307 285.873,84.5973 284.5,89C 279.821,91.7358 277.321,90.5691 277,85.5C 278.045,84.6266 278.878,83.6266 279.5,82.5 Z"/></g>
<g><path style="opacity:0.997" fill="#7132a5" d="M 78.5,64.5 C 83.5819,65.25 88.2486,67.0834 92.5,70C 94.0368,71.1096 94.7035,72.6096 94.5,74.5C 87.6161,72.7039 83.6161,75.3706 82.5,82.5C 79.3075,77.0504 77.9742,71.0504 78.5,64.5 Z"/></g>
<g><path style="opacity:0.996" fill="#e7dcf0" d="M 81.5,68.5 C 83.8004,68.5216 84.967,69.5216 85,71.5C 82.3422,72.694 81.1756,71.694 81.5,68.5 Z"/></g>
<g><path style="opacity:0.996" fill="#f9cb66" d="M 248.5,53.5 C 250.925,56.1967 250.925,59.1967 248.5,62.5C 248.833,62.8333 249.167,63.1667 249.5,63.5C 251.833,61.5 254.167,59.5 256.5,57.5C 257.72,57.8869 258.387,58.7202 258.5,60C 255.356,67.6017 256.356,68.2683 261.5,62C 262.793,61.51 264.127,61.3433 265.5,61.5C 264.564,64.9594 262.564,67.7928 259.5,70C 257.545,70.9533 255.878,72.2866 254.5,74C 253.552,74.4828 252.552,74.6495 251.5,74.5C 251.782,71.6533 251.782,68.9866 251.5,66.5C 249.255,68.6227 246.588,69.6227 243.5,69.5C 244.366,63.9031 246.033,58.5698 248.5,53.5 Z"/></g>
<g><path style="opacity:0.999" fill="#773ba9" d="M 113.5,45.5 C 114.5,45.5 115.5,45.5 116.5,45.5C 115.306,51.658 115.306,57.658 116.5,63.5C 112.664,58.5691 108.331,54.0691 103.5,50C 103.833,49.5 104.167,49 104.5,48.5C 106.833,49.8333 109.167,51.1667 111.5,52.5C 112.421,50.2235 113.087,47.8901 113.5,45.5 Z"/></g>
<g><path style="opacity:0.997" fill="#7b41ab" d="M 194.5,36.5 C 197.85,36.335 201.183,36.5017 204.5,37C 208.449,38.6874 208.449,40.1874 204.5,41.5C 203.558,41.3918 202.725,41.0585 202,40.5C 201.172,44.466 200.672,48.466 200.5,52.5C 199.178,52.67 198.011,52.3366 197,51.5C 196.593,47.8707 197.093,44.3707 198.5,41C 195.894,40.5495 194.561,39.0495 194.5,36.5 Z"/></g>
<g><path style="opacity:0.999" fill="#7335a6" d="M 165.5,33.5 C 166.552,33.3505 167.552,33.5172 168.5,34C 171.349,38.0305 173.683,42.3638 175.5,47C 175.355,47.772 175.022,48.4387 174.5,49C 172.573,47.7433 170.239,46.91 167.5,46.5C 166.167,46.6667 164.833,46.8333 163.5,47C 160.512,51.859 159.346,51.359 160,45.5C 161.043,41.0845 162.876,37.0845 165.5,33.5 Z"/></g>
<g><path style="opacity:0.996" fill="#eee6f4" d="M 166.5,38.5 C 170.478,41.3904 170.145,42.7237 165.5,42.5C 165.433,41.0413 165.766,39.7079 166.5,38.5 Z"/></g>
<g><path style="opacity:0.996" fill="#f9cc68" d="M 303.5,102.5 C 304.675,102.281 305.675,102.614 306.5,103.5C 304.727,106.06 302.727,108.393 300.5,110.5C 300.833,110.833 301.167,111.167 301.5,111.5C 304.399,110.358 307.399,109.692 310.5,109.5C 310.657,110.873 310.49,112.207 310,113.5C 307.876,114.622 306.043,116.122 304.5,118C 307.165,117.52 309.831,116.687 312.5,115.5C 315.185,115.708 315.851,116.875 314.5,119C 309.864,120.601 305.198,122.101 300.5,123.5C 298.734,123.566 297.734,122.732 297.5,121C 298.439,119.056 299.773,117.389 301.5,116C 298.854,115.503 296.187,115.336 293.5,115.5C 293.491,113.692 293.991,112.025 295,110.5C 298.333,108.333 301.166,105.666 303.5,102.5 Z"/></g>
<g><path style="opacity:0.996" fill="#763aa8" d="M 38.5,108.5 C 46.7616,109.088 49.0949,113.088 45.5,120.5C 46.7515,121.631 47.7515,122.964 48.5,124.5C 48.1667,125.167 47.8333,125.833 47.5,126.5C 42.747,123.706 37.9137,121.04 33,118.5C 33.6576,114.639 35.491,111.306 38.5,108.5 Z"/></g>
<g><path style="opacity:0.996" fill="#eee6f4" d="M 39.5,112.5 C 43.6327,113.56 44.2993,115.56 41.5,118.5C 38.6095,117.163 37.9428,115.163 39.5,112.5 Z"/></g>
<g><path style="opacity:0.997" fill="#fcf0ee" d="M 267.5,158.5 C 262.921,159.362 258.588,159.529 254.5,159C 254.043,159.414 253.709,159.914 253.5,160.5C 257.251,160.434 257.418,161.767 254,164.5C 253.667,163.833 253.333,163.167 253,162.5C 251.933,163.191 250.766,163.691 249.5,164C 250.759,164.923 252.092,165.757 253.5,166.5C 252.965,168.271 252.131,168.604 251,167.5C 250.465,170.969 249.298,173.969 247.5,176.5C 249.891,166.389 245.891,162.222 235.5,164C 226.833,171.333 218.167,178.667 209.5,186C 201.068,190.244 193.568,189.077 187,182.5C 186.312,181.668 186.479,181.002 187.5,180.5C 200.556,187.591 210.223,184.258 216.5,170.5C 213.659,168.234 210.659,166.9 207.5,166.5C 206.667,164.833 205.833,163.167 205,161.5C 206.027,144.493 199.193,131.993 184.5,124C 170.687,119.996 159.353,123.496 150.5,134.5C 148.452,132.109 146.785,129.442 145.5,126.5C 144.178,126.33 143.011,126.663 142,127.5C 141.689,126.258 142.189,125.258 143.5,124.5C 143.167,124.167 142.833,123.833 142.5,123.5C 140.931,124.714 140.098,126.381 140,128.5C 136.586,125.375 132.753,125.042 128.5,127.5C 126.466,126.426 126.133,125.093 127.5,123.5C 140.293,125.535 146.126,120.202 145,107.5C 140.891,98.94 134.558,96.6066 126,100.5C 120.309,105.981 119.142,112.314 122.5,119.5C 121.448,119.771 120.115,119.938 118.5,120C 119.28,121.073 119.113,122.24 118,123.5C 117.333,122.167 116.667,122.167 116,123.5C 114.47,125.226 113.47,127.226 113,129.5C 111.312,128.675 111.145,127.675 112.5,126.5C 109.966,123.834 107.799,124.167 106,127.5C 105.5,127.333 105,127.167 104.5,127C 105.455,125.283 106.455,123.616 107.5,122C 107.572,119.824 107.238,117.824 106.5,116C 108.5,115.667 110.5,115.333 112.5,115C 111.299,114.097 110.465,112.931 110,111.5C 109.779,114.943 108.779,115.276 107,112.5C 105.242,113.469 104.742,114.636 105.5,116C 103.031,118.022 100.865,117.855 99,115.5C 97.8808,116.552 97.3808,117.719 97.5,119C 96.451,119.492 95.451,119.326 94.5,118.5C 93.265,119.34 92.265,120.34 91.5,121.5C 99.0954,105.066 110.762,92.2331 126.5,83C 145.778,72.0198 166.445,68.3532 188.5,72C 228.537,79.0018 254.37,102.502 266,142.5C 266.83,147.808 267.33,153.141 267.5,158.5 Z"/></g>
<g><path style="opacity:1" fill="#68349a" d="M 171.5,81.5 C 185.551,82.5797 190.384,89.913 186,103.5C 178.712,112.297 170.879,112.797 162.5,105C 156.973,93.7316 159.973,85.8983 171.5,81.5 Z"/></g>
<g><path style="opacity:1" fill="#f6efea" d="M 172.5,87.5 C 179.978,88.1038 182.811,92.1038 181,99.5C 176.455,104.671 171.789,104.671 167,99.5C 165.036,93.5323 166.869,89.5323 172.5,87.5 Z"/></g>
<g><path style="opacity:0.996" fill="#663398" d="M 209.5,99.5 C 225.355,98.3325 230.355,104.999 224.5,119.5C 220.541,123.225 215.874,124.392 210.5,123C 204.092,119.677 201.925,114.511 204,107.5C 205.117,104.241 206.95,101.574 209.5,99.5 Z"/></g>
<g><path style="opacity:0.999" fill="#f8eeec" d="M 213.5,104.5 C 221.887,105.909 223.554,110.075 218.5,117C 211.333,118.5 208.5,115.667 210,108.5C 211.032,106.973 212.199,105.64 213.5,104.5 Z"/></g>
<g><path style="opacity:1" fill="#592a92" d="M 127.5,123.5 C 126.055,121.937 124.389,120.604 122.5,119.5C 119.142,112.314 120.309,105.981 126,100.5C 134.558,96.6066 140.891,98.94 145,107.5C 146.126,120.202 140.293,125.535 127.5,123.5 Z"/></g>
<g><path style="opacity:1" fill="#f4e7e9" d="M 129.5,105.5 C 137.528,104.521 140.528,107.855 138.5,115.5C 132.609,119.203 128.609,117.87 126.5,111.5C 126.984,109.199 127.984,107.199 129.5,105.5 Z"/></g>
<g><path style="opacity:0.996" fill="#6b349d" d="M 247.5,176.5 C 235.454,188.046 223.621,199.713 212,211.5C 210.725,213.717 209.725,216.051 209,218.5C 208.29,224.895 207.29,231.228 206,237.5C 204.233,240.772 201.733,243.105 198.5,244.5C 183.177,245.208 167.844,245.541 152.5,245.5C 147.224,244.058 143.724,240.725 142,235.5C 141.479,227.989 140.146,220.656 138,213.5C 125.387,200.887 112.721,188.221 100,175.5C 98.6692,165.833 102.836,162 112.5,164C 115.433,165.271 118.099,166.938 120.5,169C 126.952,176.783 134.618,183.117 143.5,188C 150.734,190.067 156.4,188.067 160.5,182C 144.473,168.966 141.139,153.133 150.5,134.5C 159.353,123.496 170.687,119.996 184.5,124C 199.193,131.993 206.027,144.493 205,161.5C 205.833,163.167 206.667,164.833 207.5,166.5C 210.659,166.9 213.659,168.234 216.5,170.5C 210.223,184.258 200.556,187.591 187.5,180.5C 186.479,181.002 186.312,181.668 187,182.5C 193.568,189.077 201.068,190.244 209.5,186C 218.167,178.667 226.833,171.333 235.5,164C 245.891,162.222 249.891,166.389 247.5,176.5 Z"/></g>
<g><path style="opacity:0.996" fill="#fcce66" d="M 44.5,139.5 C 45.3419,143.457 46.5086,147.457 48,151.5C 51.4435,154.874 55.6101,156.707 60.5,157C 49.7142,157.789 44.5475,163.622 45,174.5C 44.6736,169.854 43.3403,165.521 41,161.5C 36.9145,158.805 32.4145,157.305 27.5,157C 32.4145,156.695 36.9145,155.195 41,152.5C 43.0896,148.401 44.2562,144.067 44.5,139.5 Z"/></g>
<g><path style="opacity:0.996" fill="#fccd65" d="M 310.5,137.5 C 310.374,148.211 315.707,154.045 326.5,155C 316.651,155.516 311.484,160.683 311,170.5C 310.3,166.009 308.467,162.009 305.5,158.5C 302.06,156.631 298.393,155.465 294.5,155C 305.587,154.413 310.921,148.58 310.5,137.5 Z"/></g>
<g><path style="opacity:0.996" fill="#fcdabe" d="M 168.5,128.5 C 187.835,128.336 197.335,138.002 197,157.5C 198.866,164.071 202.366,169.571 207.5,174C 202.984,177.008 197.984,178.174 192.5,177.5C 191.414,171.801 190.247,166.135 189,160.5C 183.923,156.376 178.423,152.876 172.5,150C 167.021,144.873 163.855,138.706 163,131.5C 164.876,130.391 166.709,129.391 168.5,128.5 Z"/></g>
<g><path style="opacity:0.996" fill="#5d2c95" d="M 238.5,129.5 C 249.987,131.136 253.821,137.469 250,148.5C 242.955,155.659 236.122,154.992 229.5,146.5C 226.991,137.849 229.991,132.182 238.5,129.5 Z"/></g>
<g><path style="opacity:1" fill="#f4ebea" d="M 238.5,135.5 C 245.154,135.634 247.321,138.967 245,145.5C 242.075,148.059 239.075,148.059 236,145.5C 234.861,141.579 235.695,138.246 238.5,135.5 Z"/></g>
<g><path style="opacity:0.999" fill="#fdf4ee" d="M 122.5,119.5 C 124.389,120.604 126.055,121.937 127.5,123.5C 126.133,125.093 126.466,126.426 128.5,127.5C 132.753,125.042 136.586,125.375 140,128.5C 140.098,126.381 140.931,124.714 142.5,123.5C 142.833,123.833 143.167,124.167 143.5,124.5C 142.189,125.258 141.689,126.258 142,127.5C 143.011,126.663 144.178,126.33 145.5,126.5C 146.785,129.442 148.452,132.109 150.5,134.5C 141.139,153.133 144.473,168.966 160.5,182C 156.4,188.067 150.734,190.067 143.5,188C 134.618,183.117 126.952,176.783 120.5,169C 118.099,166.938 115.433,165.271 112.5,164C 102.836,162 98.6692,165.833 100,175.5C 112.721,188.221 125.387,200.887 138,213.5C 140.146,220.656 141.479,227.989 142,235.5C 143.724,240.725 147.224,244.058 152.5,245.5C 163.5,246.167 174.5,246.833 185.5,247.5C 184.5,247.5 183.5,247.5 182.5,247.5C 182.5,248.5 182.5,249.5 182.5,250.5C 184.355,250.272 185.188,250.939 185,252.5C 151.708,256.573 123.708,245.573 101,219.5C 87.8173,202.452 81.3173,183.119 81.5,161.5C 83.4918,161.328 85.1585,161.995 86.5,163.5C 90.1364,162.064 90.303,160.397 87,158.5C 86.6667,158.833 86.3333,159.167 86,159.5C 85.6667,158.5 85.3333,157.5 85,156.5C 84.1627,158.007 82.9961,158.507 81.5,158C 82.1136,156.87 82.1136,155.537 81.5,154C 82.1611,142.193 85.4945,131.36 91.5,121.5C 92.265,120.34 93.265,119.34 94.5,118.5C 95.451,119.326 96.451,119.492 97.5,119C 97.3808,117.719 97.8808,116.552 99,115.5C 100.865,117.855 103.031,118.022 105.5,116C 104.742,114.636 105.242,113.469 107,112.5C 108.779,115.276 109.779,114.943 110,111.5C 110.465,112.931 111.299,114.097 112.5,115C 110.5,115.333 108.5,115.667 106.5,116C 107.238,117.824 107.572,119.824 107.5,122C 106.455,123.616 105.455,125.283 104.5,127C 105,127.167 105.5,127.333 106,127.5C 107.799,124.167 109.966,123.834 112.5,126.5C 111.145,127.675 111.312,128.675 113,129.5C 113.47,127.226 114.47,125.226 116,123.5C 116.667,122.167 117.333,122.167 118,123.5C 119.113,122.24 119.28,121.073 118.5,120C 120.115,119.938 121.448,119.771 122.5,119.5 Z"/></g>
<g><path style="opacity:1" fill="#582a92" d="M 105.5,129.5 C 118.244,130.338 122.41,136.671 118,148.5C 112.873,153.994 107.039,154.828 100.5,151C 93.9542,141.809 95.6209,134.642 105.5,129.5 Z"/></g>
<g><path style="opacity:0.997" fill="#eadfe2" d="M 106.5,135.5 C 114.605,136.543 116.272,140.377 111.5,147C 106.632,148.232 103.632,146.399 102.5,141.5C 103.079,138.935 104.412,136.935 106.5,135.5 Z"/></g>
<g><path style="opacity:0.996" fill="#f9efe7" d="M 156.5,136.5 C 157.957,143.126 161.29,148.626 166.5,153C 172.25,156.626 178.084,160.126 184,163.5C 187.348,173.499 183.681,178.499 173,178.5C 159.405,176.399 152.238,168.399 151.5,154.5C 151.656,148.041 153.322,142.041 156.5,136.5 Z"/></g>
<g><path style="opacity:0.996" fill="#a177c4" d="M 51.5,195.5 C 53.1788,193.825 55.1788,192.992 57.5,193C 55.8421,194.663 53.8421,195.496 51.5,195.5 Z"/></g>
<g><path style="opacity:1" fill="#9d72c1" d="M 298.5,199.5 C 298.228,195.336 295.894,193.503 291.5,194C 295.376,192.795 298.376,193.795 300.5,197C 300.361,198.301 299.695,199.134 298.5,199.5 Z"/></g>
<g><path style="opacity:1" fill="#fef4ef" d="M 267.5,158.5 C 267.123,199.794 249.123,228.794 213.5,245.5C 207.707,248.493 201.54,250.493 195,251.5C 193.564,251.441 192.231,251.108 191,250.5C 189.89,252.037 188.39,252.703 186.5,252.5C 186.629,250.784 186.962,249.117 187.5,247.5C 187.721,244.903 188.221,244.903 189,247.5C 192.019,245.943 195.186,244.943 198.5,244.5C 201.733,243.105 204.233,240.772 206,237.5C 207.29,231.228 208.29,224.895 209,218.5C 209.725,216.051 210.725,213.717 212,211.5C 223.621,199.713 235.454,188.046 247.5,176.5C 249.298,173.969 250.465,170.969 251,167.5C 252.131,168.604 252.965,168.271 253.5,166.5C 252.092,165.757 250.759,164.923 249.5,164C 250.766,163.691 251.933,163.191 253,162.5C 253.333,163.167 253.667,163.833 254,164.5C 257.418,161.767 257.251,160.434 253.5,160.5C 253.709,159.914 254.043,159.414 254.5,159C 258.588,159.529 262.921,159.362 267.5,158.5 Z"/></g>
<g><path style="opacity:0.996" fill="#8e5bb7" d="M 51.5,195.5 C 60.0648,196.18 60.3981,198.013 52.5,201C 54.8333,201.333 57.1667,201.667 59.5,202C 56.4459,202.821 53.4459,202.655 50.5,201.5C 51.7786,199.854 53.4453,198.687 55.5,198C 53.4233,197.808 51.4233,197.308 49.5,196.5C 49.9569,195.702 50.6236,195.369 51.5,195.5 Z"/></g>
<g><path style="opacity:1" fill="#8e5db8" d="M 298.5,199.5 C 295.822,200.909 293.156,200.743 290.5,199C 293.157,198.825 295.824,198.992 298.5,199.5 Z"/></g>
<g><path style="opacity:1" fill="#844eb2" d="M 288.5,211.5 C 289.097,210.861 289.93,210.528 291,210.5C 292.699,210.387 293.866,211.053 294.5,212.5C 292.565,211.85 290.565,211.517 288.5,211.5 Z"/></g>
<g><path style="opacity:1" fill="#faf7fb" d="M 288.5,211.5 C 290.565,211.517 292.565,211.85 294.5,212.5C 294.5,213.833 294.5,215.167 294.5,216.5C 292.5,216.5 290.5,216.5 288.5,216.5C 288.5,214.833 288.5,213.167 288.5,211.5 Z"/></g>
<g><path style="opacity:0.996" fill="#9768bd" d="M 58.5,212.5 C 62.0562,212.275 62.3895,213.108 59.5,215C 60.0933,216.882 61.4267,217.882 63.5,218C 60.8056,219.852 58.139,220.685 55.5,220.5C 56.6651,219.416 57.9984,218.583 59.5,218C 58.9288,216.795 58.2621,215.628 57.5,214.5C 56.2322,215.428 54.8989,215.595 53.5,215C 55.3146,214.243 56.9812,213.41 58.5,212.5 Z"/></g>
<g><path style="opacity:1" fill="#ab84c9" d="M 288.5,211.5 C 288.5,213.167 288.5,214.833 288.5,216.5C 290.5,216.5 292.5,216.5 294.5,216.5C 294.5,215.167 294.5,213.833 294.5,212.5C 295.613,213.946 295.78,215.613 295,217.5C 290.884,219.412 288.051,218.245 286.5,214C 286.639,212.699 287.305,211.866 288.5,211.5 Z"/></g>
<g><path style="opacity:1" fill="#fdeddc" d="M 106.5,169.5 C 108.199,169.34 109.866,169.506 111.5,170C 118.5,176.333 125.5,182.667 132.5,189C 144.998,197.136 156.665,196.136 167.5,186C 172.652,183.878 177.652,184.211 182.5,187C 192.382,196.511 203.049,197.511 214.5,190C 221.5,183.667 228.5,177.333 235.5,171C 237.677,169.798 240.011,169.298 242.5,169.5C 242.657,170.873 242.49,172.207 242,173.5C 228.973,185.194 216.64,197.527 205,210.5C 203.601,213.363 202.601,216.363 202,219.5C 201.899,224.946 201.232,230.279 200,235.5C 199.097,236.701 197.931,237.535 196.5,238C 181.5,238.667 166.5,238.667 151.5,238C 150.667,237.167 149.833,236.333 149,235.5C 147.675,229.568 146.675,223.568 146,217.5C 145.197,214.756 144.197,212.089 143,209.5C 131.024,197.192 118.691,185.192 106,173.5C 105.421,172.072 105.588,170.738 106.5,169.5 Z"/></g>
<g><path style="opacity:1" fill="#996bbe" d="M 284.5,228.5 C 282.915,227.998 282.415,226.998 283,225.5C 284.039,226.244 284.539,227.244 284.5,228.5 Z"/></g>
<g><path style="opacity:0.996" fill="#8e5db8" d="M 65.5,229.5 C 66.172,228.733 67.0053,228.066 68,227.5C 68.1881,229.061 67.3547,229.728 65.5,229.5 Z"/></g>
<g><path style="opacity:1" fill="#ac88cb" d="M 284.5,228.5 C 286.507,229.348 287.674,230.682 288,232.5C 285.26,231.718 282.426,231.218 279.5,231C 281.175,230.015 282.842,229.181 284.5,228.5 Z"/></g>
<g><path style="opacity:0.996" fill="#9f73c2" d="M 65.5,229.5 C 67.2129,233.461 66.5462,234.128 63.5,231.5C 62.7579,233.108 62.5913,234.775 63,236.5C 59.2642,232.63 60.0975,230.296 65.5,229.5 Z"/></g>
<g><path style="opacity:1" fill="#9f74c2" d="M 73.5,245.5 C 72.8333,245.167 72.1667,244.833 71.5,244.5C 74.3429,240.327 76.6763,240.661 78.5,245.5C 76.249,246.818 74.249,248.484 72.5,250.5C 72.1667,250.333 71.8333,250.167 71.5,250C 72.5822,248.67 73.2488,247.17 73.5,245.5 Z"/></g>
<g><path style="opacity:0.996" fill="#f5f0f8" d="M 73.5,245.5 C 74.2068,241.925 75.2068,241.758 76.5,245C 75.8235,246.683 74.8235,246.85 73.5,245.5 Z"/></g>
<g><path style="opacity:0.996" fill="#9c6fc0" d="M 71.5,244.5 C 70.9976,246.085 69.9976,246.585 68.5,246C 69.2438,244.961 70.2438,244.461 71.5,244.5 Z"/></g>
<g><path style="opacity:0.996" fill="#ae93bc" d="M 198.5,244.5 C 195.186,244.943 192.019,245.943 189,247.5C 188.221,244.903 187.721,244.903 187.5,247.5C 186.833,247.5 186.167,247.5 185.5,247.5C 174.5,246.833 163.5,246.167 152.5,245.5C 167.844,245.541 183.177,245.208 198.5,244.5 Z"/></g>
<g><path style="opacity:1" fill="#9b6fc0" d="M 267.5,248.5 C 268.376,248.369 269.043,248.702 269.5,249.5C 267.96,250.532 267.46,251.865 268,253.5C 269.599,251.964 271.433,251.464 273.5,252C 271.35,253.59 269.017,254.257 266.5,254C 265.668,252.091 266.001,250.258 267.5,248.5 Z"/></g>
<g><path style="opacity:1" fill="#986bbe" d="M 271.5,255.5 C 273.975,255.747 273.975,256.413 271.5,257.5C 270.537,257.03 270.537,256.363 271.5,255.5 Z"/></g>
<g><path style="opacity:0.996" fill="#9c71c0" d="M 84.5,253.5 C 85.2891,253.783 85.9558,254.283 86.5,255C 85.3279,255.419 84.3279,256.085 83.5,257C 86.1859,260.476 85.8525,260.976 82.5,258.5C 81.5224,258.977 80.6891,259.643 80,260.5C 79.3333,259.833 79.3333,259.167 80,258.5C 81.7073,256.963 83.2073,255.296 84.5,253.5 Z"/></g>
<g><path style="opacity:0.996" fill="#9c70c0" d="M 257.5,259.5 C 259.842,259.775 259.842,260.608 257.5,262C 259.954,263.74 261.454,265.907 262,268.5C 260.5,267 259,265.5 257.5,264C 256.551,263.383 255.718,263.549 255,264.5C 255.058,262.565 255.891,260.898 257.5,259.5 Z"/></g>
<g><path style="opacity:0.998" fill="#9769bd" d="M 243.5,271.5 C 245.379,271.393 245.712,271.893 244.5,273C 245.328,273.915 246.328,274.581 247.5,275C 246.167,275.667 246.167,276.333 247.5,277C 248.5,277.333 249.5,277.667 250.5,278C 248.863,279.951 247.363,279.784 246,277.5C 244.441,275.783 243.608,273.783 243.5,271.5 Z"/></g>
<g><path style="opacity:1" fill="#a176c3" d="M 105.5,276.5 C 104.535,279.085 103.201,279.585 101.5,278C 102.137,275.755 102.97,273.588 104,271.5C 104.595,272.899 104.428,274.232 103.5,275.5C 103.957,276.298 104.624,276.631 105.5,276.5 Z"/></g>
<g><path style="opacity:1" fill="#996bbe" d="M 105.5,276.5 C 108.358,272.474 109.025,272.974 107.5,278C 109.994,279.775 109.66,281.275 106.5,282.5C 105.943,280.354 105.61,278.354 105.5,276.5 Z"/></g>
<g><path style="opacity:0.996" fill="#a279c4" d="M 232.5,278.5 C 234.975,278.747 234.975,279.413 232.5,280.5C 231.537,280.03 231.537,279.363 232.5,278.5 Z"/></g>
<g><path style="opacity:1" fill="#ece3f3" d="M 119.5,289.5 C 118.167,288.167 118.167,286.833 119.5,285.5C 121.916,282.692 123.916,283.025 125.5,286.5C 124.702,290.201 122.702,291.201 119.5,289.5 Z"/></g>
<g><path style="opacity:0.996" fill="#996cbf" d="M 231.5,282.5 C 232.836,284.307 234.503,285.807 236.5,287C 235.576,288.489 234.576,288.656 233.5,287.5C 232.544,285.925 231.877,284.258 231.5,282.5 Z"/></g>
<g><path style="opacity:1" fill="#986abe" d="M 119.5,289.5 C 122.702,291.201 124.702,290.201 125.5,286.5C 123.916,283.025 121.916,282.692 119.5,285.5C 120.969,281.932 123.136,281.598 126,284.5C 127.416,288.508 126.082,290.841 122,291.5C 120.624,291.316 119.791,290.649 119.5,289.5 Z"/></g>
<g><path style="opacity:1" fill="#a57dc6" d="M 158.5,300.5 C 156.735,301.461 154.735,301.795 152.5,301.5C 152.963,298.518 153.296,295.518 153.5,292.5C 157.458,291.973 159.791,293.64 160.5,297.5C 160.547,299.038 159.88,300.038 158.5,300.5 Z"/></g>
<g><path style="opacity:0.996" fill="#9e73c2" d="M 136.5,288.5 C 137.376,288.369 138.043,288.702 138.5,289.5C 139.015,291.225 139.682,292.892 140.5,294.5C 141.187,292.726 142.02,291.059 143,289.5C 143.104,292.697 142.271,295.697 140.5,298.5C 139.5,296.5 138.5,294.5 137.5,292.5C 136.749,293.376 136.249,294.376 136,295.5C 135.346,296.696 134.846,296.696 134.5,295.5C 135.577,293.271 136.244,290.937 136.5,288.5 Z"/></g>
<g><path style="opacity:1" fill="#f9f7fb" d="M 158.5,300.5 C 156.712,300.785 155.045,300.452 153.5,299.5C 154.309,297.929 154.643,296.262 154.5,294.5C 155.833,294.5 157.167,294.5 158.5,294.5C 158.5,296.5 158.5,298.5 158.5,300.5 Z"/></g>
<g><path style="opacity:0.996" fill="#9666bc" d="M 186.5,293.5 C 192.131,292.618 193.631,294.618 191,299.5C 189.817,298.269 188.651,298.269 187.5,299.5C 188.59,300.609 188.59,301.609 187.5,302.5C 186.516,299.572 186.183,296.572 186.5,293.5 Z"/></g>
<g><path style="opacity:1" fill="#fbf9fc" d="M 187.5,294.5 C 188.5,294.5 189.5,294.5 190.5,294.5C 190.5,295.5 190.5,296.5 190.5,297.5C 189.5,297.5 188.5,297.5 187.5,297.5C 187.5,296.5 187.5,295.5 187.5,294.5 Z"/></g>
<g><path style="opacity:0.996" fill="#a881c8" d="M 218.5,285.5 C 219.496,285.414 220.329,285.748 221,286.5C 221.991,288.447 222.325,290.447 222,292.5C 221.667,291.833 221.333,291.167 221,290.5C 220.51,291.793 220.343,293.127 220.5,294.5C 218.089,294.863 216.589,293.863 216,291.5C 215.805,293.207 215.805,294.874 216,296.5C 214.647,294.12 213.481,291.62 212.5,289C 212.85,287.743 213.517,287.409 214.5,288C 218.084,293.935 219.418,293.102 218.5,285.5 Z"/></g>
<g><path style="opacity:1" fill="#ae8acc" d="M 170.5,294.5 C 172.527,294.338 174.527,294.505 176.5,295C 171.93,295.55 171.597,296.717 175.5,298.5C 174.5,299.167 173.5,299.833 172.5,300.5C 177.363,302.675 176.697,303.675 170.5,303.5C 170.5,300.5 170.5,297.5 170.5,294.5 Z"/></g>
</svg>
